<svg xmlns="http://www.w3.org/2000/svg" width="52" height="83" viewBox="0 0 52 83">
  <metadata><?xpacket begin="﻿" id="W5M0MpCehiHzreSzNTczkc9d"?>
<x:xmpmeta xmlns:x="adobe:ns:meta/" x:xmptk="Adobe XMP Core 5.6-c138 79.159824, 2016/09/14-01:09:01        ">
   <rdf:RDF xmlns:rdf="http://www.w3.org/1999/02/22-rdf-syntax-ns#">
      <rdf:Description rdf:about=""/>
   </rdf:RDF>
</x:xmpmeta>
                                                                                                    
                                                                                                    
                                                                                                    
                                                                                                    
                                                                                                    
                                                                                                    
                                                                                                    
                                                                                                    
                                                                                                    
                                                                                                    
                                                                                                    
                                                                                                    
                                                                                                    
                                                                                                    
                                                                                                    
                                                                                                    
                                                                                                    
                                                                                                    
                                                                                                    
                                                                                                    
                           
<?xpacket end="w"?></metadata>
<defs>
    <style>
      .cls-1 {
        fill: #fff;
        fill-rule: evenodd;
      }
    </style>
  </defs>
  <path id="alarm_systems" class="cls-1" d="M627.234,2363h-4.146a1.765,1.765,0,0,1-1.766-1.76v-57.35H584.678v57.35a1.765,1.765,0,0,1-1.766,1.76h-4.146a1.76,1.76,0,1,1,0-3.52h2.38v-63.27a1.765,1.765,0,0,1,1.766-1.76h13.471v-0.93a6.617,6.617,0,0,1,13.234,0v0.93h13.471a1.765,1.765,0,0,1,1.766,1.76v63.27h2.38A1.76,1.76,0,1,1,627.234,2363Zm-21.149-69.48a3.085,3.085,0,0,0-6.17,0v0.49h6.17v-0.49Zm15.237,4.45H584.678v2.4h36.644v-2.4Zm-11.73-12.76-1.211,1.21a1.783,1.783,0,0,1-2.5,0,1.756,1.756,0,0,1,0-2.49l1.211-1.21A1.763,1.763,0,0,1,609.592,2285.21Zm-6.592.02a1.765,1.765,0,0,1-1.766-1.76v-1.71a1.766,1.766,0,0,1,3.532,0v1.71A1.765,1.765,0,0,1,603,2285.23Zm-2.883,1.19a1.784,1.784,0,0,1-2.5,0l-1.211-1.21a1.763,1.763,0,0,1,2.5-2.49l1.212,1.21A1.756,1.756,0,0,1,600.117,2286.42Zm0.622,34.48a5.637,5.637,0,1,1,4.523,0,7.157,7.157,0,0,1,5.947,7.03v14.71a1.765,1.765,0,0,1-1.766,1.76H608.37v16.84A1.765,1.765,0,0,1,606.6,2363H599.4a1.765,1.765,0,0,1-1.766-1.76V2344.4h-1.073a1.764,1.764,0,0,1-1.766-1.76v-14.71A7.157,7.157,0,0,1,600.739,2320.9Zm2.261-7.24a2.1,2.1,0,1,0,2.105,2.1A2.1,2.1,0,0,0,603,2313.66Zm-4.676,27.22H599.4a1.758,1.758,0,0,1,1.766,1.76v16.84h3.675v-16.84a1.757,1.757,0,0,1,1.766-1.76h1.073v-12.95a3.622,3.622,0,0,0-3.624-3.61h-2.105a3.621,3.621,0,0,0-3.624,3.61v12.95Z" transform="translate(-577 -2280)"/>
</svg>
