<svg xmlns="http://www.w3.org/2000/svg" width="76" height="64" viewBox="0 0 76 64">
  <metadata><?xpacket begin="﻿" id="W5M0MpCehiHzreSzNTczkc9d"?>
<x:xmpmeta xmlns:x="adobe:ns:meta/" x:xmptk="Adobe XMP Core 5.6-c138 79.159824, 2016/09/14-01:09:01        ">
   <rdf:RDF xmlns:rdf="http://www.w3.org/1999/02/22-rdf-syntax-ns#">
      <rdf:Description rdf:about=""/>
   </rdf:RDF>
</x:xmpmeta>
                                                                                                    
                                                                                                    
                                                                                                    
                                                                                                    
                                                                                                    
                                                                                                    
                                                                                                    
                                                                                                    
                                                                                                    
                                                                                                    
                                                                                                    
                                                                                                    
                                                                                                    
                                                                                                    
                                                                                                    
                                                                                                    
                                                                                                    
                                                                                                    
                                                                                                    
                                                                                                    
                           
<?xpacket end="w"?></metadata>
<defs>
    <style>
      .cls-1 {
        fill: #fff;
        fill-rule: evenodd;
      }
    </style>
  </defs>
  <path id="cctv" class="cls-1" d="M353.361,2315.59l-5.619,3.96a0.046,0.046,0,0,0-.009.02l-0.158.44,4.982,1.83a1.566,1.566,0,0,1,.932,2.01l-3.467,9.58a1.557,1.557,0,0,1-.806.89,1.519,1.519,0,0,1-.659.15,1.408,1.408,0,0,1-.533-0.1l-4.982-1.82-1.569,4.34a1.573,1.573,0,0,1-1.465,1.03,1.413,1.413,0,0,1-.534-0.1l-21.26-7.78-6.325,12.67c0.017,0.18.027,0.37,0.027,0.57a6.268,6.268,0,0,1-6.238,6.28,6.186,6.186,0,0,1-3.106-.84h-8.2v5.57a1.563,1.563,0,0,1-1.559,1.57h-5.66a4.452,4.452,0,0,1-4.242,3.14h-3.353a1.563,1.563,0,0,1-1.559-1.57v-25.9a1.569,1.569,0,0,1,1.559-1.57h3.353a4.452,4.452,0,0,1,4.242,3.14h5.659a1.563,1.563,0,0,1,1.56,1.57v4.63h6.482a6.3,6.3,0,0,1,3.449-2.15l5.1-10.34-14.043-5.15a3.369,3.369,0,0,1-1.927-1.78,3.417,3.417,0,0,1-.114-2.62l7.229-20a3.422,3.422,0,0,1,4.376-2.05L353,2312.83a1.555,1.555,0,0,1,1.013,1.27A1.58,1.58,0,0,1,353.361,2315.59Zm-69.124,38.7v-19.85a1.333,1.333,0,0,0-1.325-1.34h-1.794v22.76h1.794a1.331,1.331,0,0,0,1.325-1.33v-0.24Zm7.017-18.05h-3.9v16.48h3.9v-16.48Zm8.244,6.2h-5.125v3.14h5.5a6.273,6.273,0,0,1-.436-2.3A6.18,6.18,0,0,1,299.5,2342.44Zm48.127-11.55,2.4-6.64-3.516-1.29-2.4,6.64Zm-45.066,12.39a3.119,3.119,0,1,0,3.119-3.14A3.134,3.134,0,0,0,302.559,2343.28Zm5.136-5.94a6.272,6.272,0,0,1,2.55,1.67l5.019-10.06-2.914-1.06Zm-3.84-39.18a0.333,0.333,0,0,0-.226.01,0.272,0.272,0,0,0-.152.17l-4.966,13.73,9.283,3.4a1.573,1.573,0,0,1,.932,2.01,1.55,1.55,0,0,1-2,.94l-9.283-3.4-1.2,3.31a0.294,0.294,0,0,0,.01.23,0.271,0.271,0,0,0,.167.15l42.651,15.63,2.314-6.4,1.9-5.26-7.865,5.54a1.535,1.535,0,0,1-.894.29,1.415,1.415,0,0,1-.533-0.1l-14.88-5.45a1.573,1.573,0,0,1-.932-2.01,1.55,1.55,0,0,1,2-.94l14.118,5.17,14.816-10.44Zm10.013,22.78a1.434,1.434,0,0,1-.533-0.1l-0.227-.08a1.573,1.573,0,0,1-.932-2.01,1.551,1.551,0,0,1,2-.94l0.227,0.08A1.574,1.574,0,0,1,313.868,2320.94Z" transform="translate(-278 -2295)"/>
</svg>
