<svg xmlns="http://www.w3.org/2000/svg" width="69" height="74" viewBox="0 0 69 74">
  <metadata><?xpacket begin="﻿" id="W5M0MpCehiHzreSzNTczkc9d"?>
<x:xmpmeta xmlns:x="adobe:ns:meta/" x:xmptk="Adobe XMP Core 5.6-c138 79.159824, 2016/09/14-01:09:01        ">
   <rdf:RDF xmlns:rdf="http://www.w3.org/1999/02/22-rdf-syntax-ns#">
      <rdf:Description rdf:about=""/>
   </rdf:RDF>
</x:xmpmeta>
                                                                                                    
                                                                                                    
                                                                                                    
                                                                                                    
                                                                                                    
                                                                                                    
                                                                                                    
                                                                                                    
                                                                                                    
                                                                                                    
                                                                                                    
                                                                                                    
                                                                                                    
                                                                                                    
                                                                                                    
                                                                                                    
                                                                                                    
                                                                                                    
                                                                                                    
                                                                                                    
                           
<?xpacket end="w"?></metadata>
<defs>
    <style>
      .cls-1 {
        fill: #fff;
        fill-rule: evenodd;
      }
    </style>
  </defs>
  <path id="control" class="cls-1" d="M933.835,2361.56l-0.04.09a20.765,20.765,0,0,0-1.854,8.62,1.69,1.69,0,0,1-.027.3l-0.527,2.98a1.754,1.754,0,0,1-1.728,1.45H905.435a1.752,1.752,0,0,1-1.748-1.6l-0.527-5.86a1.572,1.572,0,0,1-.007-0.16,9.345,9.345,0,0,0-2.475-6.32c-2.471-2.69-5.417-6.61-5.417-9.95v-4.38c0-2.71,3.049-4.61,5.544-5.02v-15.02a5.679,5.679,0,0,1,5.666-5.67h0.078a5.672,5.672,0,0,1,5.666,5.67v4.25a5.6,5.6,0,0,1,2.169-.43h0.079a5.686,5.686,0,0,0,7.849,2.81h0.079a5.69,5.69,0,0,1,5.611,4.79,5.576,5.576,0,0,1,2.239-.46h0.079a5.688,5.688,0,0,1,5.68,5.68v8.17A24.3,24.3,0,0,1,933.835,2361.56Zm-1.346-10.06v-8.17a2.17,2.17,0,0,0-2.169-2.17h-0.08a2.17,2.17,0,0,0-2.169,2.17v6.32a1.755,1.755,0,1,1-3.51,0V2339a2.17,2.17,0,0,0-2.17-2.17h-0.079a2.17,2.17,0,0,0-2.169,2.17v9.77a1.756,1.756,0,1,1-3.511,0v-12.58a2.17,2.17,0,0,0-2.169-2.17h-0.079a2.17,2.17,0,0,0-2.169,2.17v11.7a1.756,1.756,0,1,1-3.511,0v-21.2a2.16,2.16,0,0,0-2.155-2.16h-0.078a2.16,2.16,0,0,0-2.155,2.16v22.96a1.756,1.756,0,1,1-3.511,0v-4.34a3.29,3.29,0,0,0-2.033,1.42v4.38c0,1.65,1.721,4.55,4.493,7.58a12.829,12.829,0,0,1,3.4,8.61l0.376,4.19h21.148l0.243-1.38a24.337,24.337,0,0,1,2.165-9.91l0.04-.09a20.769,20.769,0,0,0,1.854-8.61h0Zm-27.749-38.21a6.145,6.145,0,1,1,6.144-6.14A6.146,6.146,0,0,1,904.74,2313.29Zm0-8.78a2.635,2.635,0,1,0,2.633,2.64A2.637,2.637,0,0,0,904.74,2304.51Zm-15.8,40.4a6.15,6.15,0,1,1,6.144-6.15A6.155,6.155,0,0,1,888.942,2344.91Zm0-8.78a2.635,2.635,0,1,0,2.633,2.63A2.634,2.634,0,0,0,888.942,2336.13Zm0-7.03a6.145,6.145,0,1,1,6.144-6.15A6.155,6.155,0,0,1,888.942,2329.1Zm0-8.78a2.635,2.635,0,1,0,2.633,2.63A2.634,2.634,0,0,0,888.942,2320.32Zm0-7.03a6.145,6.145,0,1,1,6.144-6.14A6.146,6.146,0,0,1,888.942,2313.29Zm0-8.78a2.635,2.635,0,1,0,2.633,2.64A2.637,2.637,0,0,0,888.942,2304.51Zm-15.8,40.4a6.15,6.15,0,1,1,6.144-6.15A6.155,6.155,0,0,1,873.144,2344.91Zm0-8.78a2.635,2.635,0,1,0,2.633,2.63A2.634,2.634,0,0,0,873.144,2336.13Zm0-7.03a6.145,6.145,0,1,1,6.144-6.15A6.155,6.155,0,0,1,873.144,2329.1Zm0-8.78a2.635,2.635,0,1,0,2.633,2.63A2.634,2.634,0,0,0,873.144,2320.32Zm0-7.03a6.145,6.145,0,1,1,6.144-6.14A6.146,6.146,0,0,1,873.144,2313.29Zm0-8.78a2.635,2.635,0,1,0,2.633,2.64A2.637,2.637,0,0,0,873.144,2304.51Z" transform="translate(-867 -2301)"/>
</svg>
