<svg xmlns="http://www.w3.org/2000/svg" width="91.03" height="62" viewBox="0 0 91.03 62">
  <metadata><?xpacket begin="﻿" id="W5M0MpCehiHzreSzNTczkc9d"?>
<x:xmpmeta xmlns:x="adobe:ns:meta/" x:xmptk="Adobe XMP Core 5.6-c138 79.159824, 2016/09/14-01:09:01        ">
   <rdf:RDF xmlns:rdf="http://www.w3.org/1999/02/22-rdf-syntax-ns#">
      <rdf:Description rdf:about=""/>
   </rdf:RDF>
</x:xmpmeta>
                                                                                                    
                                                                                                    
                                                                                                    
                                                                                                    
                                                                                                    
                                                                                                    
                                                                                                    
                                                                                                    
                                                                                                    
                                                                                                    
                                                                                                    
                                                                                                    
                                                                                                    
                                                                                                    
                                                                                                    
                                                                                                    
                                                                                                    
                                                                                                    
                                                                                                    
                                                                                                    
                           
<?xpacket end="w"?></metadata>
<defs>
    <style>
      .cls-1 {
        fill: #fff;
        fill-rule: evenodd;
      }
    </style>
  </defs>
  <path id="fire_alarms" class="cls-1" d="M1226.44,2349.43l-1.97-1.96a26.339,26.339,0,0,0,0-37.3l1.97-1.96A29.1,29.1,0,0,1,1226.44,2349.43Zm-5.48-5.45-1.97-1.97a18.62,18.62,0,0,0,0-26.39l1.97-1.96A21.39,21.39,0,0,1,1220.96,2343.98Zm-60.75,7.38a5.1,5.1,0,0,1,5.11-5.09h1.39v-23.6a22.77,22.77,0,0,1,45.54,0v23.6h1.39a5.1,5.1,0,0,1,5.11,5.09V2362h-58.54v-10.64Zm49.25-28.69a19.98,19.98,0,0,0-39.96,0v23.6h39.96v-23.6ZM1163,2352.75h14.96v2.77H1163v3.7h52.96v-3.7h-14.03v-2.77h14.03v-1.39a2.322,2.322,0,0,0-2.32-2.32h-48.32a2.322,2.322,0,0,0-2.32,2.32v1.39Zm21.83,2.77h-2.78v-2.77h2.78v2.77Zm6.51,0h-2.79v-2.77h2.79v2.77Zm6.5,0h-2.79v-2.77h2.79v2.77Zm-8.36-48.12v2.78a12.532,12.532,0,0,0-12.55,12.49h-2.78A15.313,15.313,0,0,1,1189.48,2307.4Zm-4.18,28.26a6.97,6.97,0,1,1,8.36,0v6.58h3.25v2.77h-14.87v-2.77h3.26v-6.58Zm2.79,6.58h2.78v-5.32a7.5,7.5,0,0,1-2.78,0v5.32Zm1.39-7.96a4.165,4.165,0,1,0-4.18-4.17A4.182,4.182,0,0,0,1189.48,2334.28Zm-31.49,9.7a21.408,21.408,0,0,1,0-30.32l1.98,1.96a18.62,18.62,0,0,0,0,26.39Zm-3.5,3.49-1.97,1.96a29.1,29.1,0,0,1,0-41.22l1.97,1.96A26.321,26.321,0,0,0,1154.49,2347.47Z" transform="translate(-1143.97 -2300)"/>
</svg>
